<svg xmlns="http://www.w3.org/2000/svg" viewBox="0 0 400 500" fill="none">
  <defs>
    <linearGradient id="pouch" x1="0.1" y1="0" x2="0.9" y2="1">
      <stop offset="0" stop-color="#6f4a33" />
      <stop offset="0.45" stop-color="#4e3122" />
      <stop offset="1" stop-color="#301c13" />
    </linearGradient>
    <linearGradient id="foil" x1="0" y1="0" x2="1" y2="0">
      <stop offset="0" stop-color="#d8c3a5" />
      <stop offset="0.5" stop-color="#f2e6d2" />
      <stop offset="1" stop-color="#c3ab8b" />
    </linearGradient>
  </defs>

  <ellipse cx="200" cy="454" rx="100" ry="17" fill="#000" opacity="0.18" />

  <path d="M120 108h160l12 40v264c0 12-10 22-22 22H130c-12 0-22-10-22-22V148z" fill="url(#pouch)" />
  <path d="M120 108h44v326h-34c-12 0-22-10-22-22V148z" fill="#ffffff" opacity="0.07" />
  <rect x="108" y="86" width="184" height="26" rx="6" fill="url(#foil)" />
  <path d="M108 86h184l-8 14H116z" fill="#b39a78" opacity="0.6" />

  <circle cx="200" cy="228" r="52" fill="none" stroke="#e0c79b" stroke-width="3" opacity="0.85" />
  <path d="M182 214c0-10 8-16 18-16s18 6 18 16-8 14-18 22c-10-8-18-12-18-22z" fill="#e0c79b" opacity="0.9" />
  <rect x="150" y="296" width="100" height="8" rx="4" fill="#e0c79b" opacity="0.8" />
  <rect x="168" y="316" width="64" height="6" rx="3" fill="#e0c79b" opacity="0.5" />
  <rect x="146" y="352" width="108" height="34" rx="8" fill="#e0c79b" opacity="0.16" />
</svg>
